<svg version="1.1" xmlns="http://www.w3.org/2000/svg" xmlns:xlink="http://www.w3.org/1999/xlink" width="28px" height="20px" viewBox="0 0 28 20" enable-background="new 0 0 28 20" xml:space="preserve"><path fill="#0A17A7" d="M28,18c0,1.104-0.896,2-2,2H2c-1.104,0-2-0.896-2-2V2c0-1.104,0.896-2,2-2h24c1.104,0,2,0.896,2,2V18z"/>
<defs><filter id="Adobe_OpacityMaskFilter" filterUnits="userSpaceOnUse" x="0" y="0" width="28" height="20"><feColorMatrix  type="matrix" values="1 0 0 0 0  0 1 0 0 0  0 0 1 0 0  0 0 0 1 0"/></filter></defs><mask maskUnits="userSpaceOnUse" x="0" y="0" width="28" height="20" id="mask-2_1_"><g filter="url(#Adobe_OpacityMaskFilter)"><g><defs><polygon id="SVGID_1_" points="28,0 26.439,0 17.332,6.143 17.332,0 10.667,0 10.667,6.143 1.559,0 0,0 0,2.165 6.673,6.666 0,6.666 0,13.333 6.673,13.333 0,17.835 0,20 1.558,20 10.667,13.855 10.667,20 17.332,20 17.332,13.855 26.441,20 28,20 28,17.835 21.326,13.333 28,13.333 28,6.666 21.326,6.666 28,2.165"/></defs><clipPath id="SVGID_2_"><use xlink:href="#SVGID_1_"  overflow="visible"/></clipPath><path id="path-1_2_" clip-path="url(#SVGID_2_)" fill="#FFFFFF" d="M2,0h24c1.104,0,2,0.896,2,2v16c0,1.104-0.896,2-2,2H2c-1.104,0-2-0.896-2-2V2C0,0.896,0.895,0,2,0z"/></g></g></mask><rect id="Mask-Copy_1_" mask="url(#mask-2_1_)" fill="#FFFFFF" width="28" height="20"/><defs><filter id="Adobe_OpacityMaskFilter_1_" filterUnits="userSpaceOnUse" x="0" y="0" width="28" height="20"><feColorMatrix  type="matrix" values="1 0 0 0 0  0 1 0 0 0  0 0 1 0 0  0 0 0 1 0"/></filter></defs><mask maskUnits="userSpaceOnUse" x="0" y="0" width="28" height="20" id="mask-2_15_"><g filter="url(#Adobe_OpacityMaskFilter_1_)"><path id="path-1_17_" fill="#FFFFFF" d="M2,0h24c1.104,0,2,0.896,2,2v16c0,1.104-0.896,2-2,2H2c-1.104,0-2-0.896-2-2V2	C0,0.896,0.896,0,2,0z"/></g></mask><polygon id="Rectangle-2-Copy-3_2_" mask="url(#mask-2_15_)" fill="#D0021B" points="0,12 12,12 12,20 16,20 16,12 28,12 28,8 16,8 16,0 12,0 12,8 0,8 "/><path fill="#D0021B" d="M0.415,0.793c-0.136,0.178-0.239,0.378-0.31,0.595l7.713,5.199C7.876,6.626,7.94,6.644,8.004,6.644c0.107,0,0.212-0.052,0.277-0.147c0.103-0.153,0.063-0.36-0.09-0.463L0.415,0.793z"/><path fill="#D0021B" d="M27.14,0.359l-8.655,5.695c-0.153,0.101-0.196,0.308-0.096,0.461c0.064,0.098,0.172,0.15,0.279,0.15c0.063,0,0.127-0.018,0.184-0.055l8.771-5.771C27.49,0.653,27.328,0.49,27.14,0.359z"/><path fill="#D0021B" d="M20.199,13.421c-0.154-0.103-0.361-0.063-0.463,0.091c-0.104,0.152-0.063,0.359,0.09,0.463l7.762,5.229c0.135-0.178,0.238-0.378,0.308-0.595L20.199,13.421z"/><path fill="#D0021B" d="M9.104,13.327l-8.752,5.805c0.129,0.188,0.292,0.35,0.476,0.483l8.645-5.733c0.154-0.103,0.195-0.31,0.094-0.462C9.465,13.268,9.258,13.225,9.104,13.327z"/></svg>