<svg xmlns="http://www.w3.org/2000/svg" viewBox="0 0 44 44"><path d="M22 44C9.9 44 0 34.1 0 22S9.9 0 22 0s22 9.9 22 22-9.9 22-22 22zm0-42C11 2 2 11 2 22s9 20 20 20 20-9 20-20S33 2 22 2z" class="a"/><path d="M25.2 13.2c.8.1 1.6.3 2.3.5 1.3.4 2.6 1 3.8 1.7.1.1.2.1.3.1h4.5c-.1.1-.1.2-.2.3-.5.7-.9 1.5-1.1 2.3v.3c1.2 1.8 1.6 3.7 1.1 5.8-.5 1.8-1.5 3.3-3.1 4.3-1.1.7-2.4 1.1-3.8 1.1-.6 0-1.1-.1-1.7-.2-1.4-.4-2.5-1-3.5-2-.1-.1-.2-.3-.4-.4-.5.8-1 1.5-1.5 2.3-.5-.8-1-1.5-1.5-2.2-1.2 1.4-2.6 2.2-4.4 2.5-1 .2-2 .1-2.9-.2-1.4-.4-2.5-1.1-3.4-2.1-.9-1-1.5-2.2-1.7-3.6-.2-1.3.1-2.5.1-2.8.2-.9.6-1.7 1.1-2.4v-.2c-.2-.8-.6-1.5-1-2.1-.1-.2-.2-.3-.4-.5v-.1h4.4c.1 0 .1 0 .2-.1 1-.6 2.1-1.1 3.2-1.5.8-.3 1.6-.5 2.5-.7.8-.2 1.6-.3 2.5-.3 1.9-.1 3.5.1 4.6.2zm-1.8 9.4c0 3.1 2.5 5.7 5.6 5.7 3.1 0 5.6-2.5 5.6-5.6 0-3.3-2.6-5.7-5.8-5.6-3 0-5.4 2.4-5.4 5.5zM14.9 17c-3 0-5.7 2.5-5.6 5.7 0 3 2.5 5.6 5.7 5.5 3.1 0 5.6-2.6 5.6-5.6 0-3.1-2.5-5.6-5.7-5.6zm.3-1.5c1.7.1 3.2.7 4.5 1.9 1.3 1.2 2 2.6 2.3 4.3.3-1.7 1-3.1 2.3-4.2 1.2-1.1 2.7-1.7 4.4-1.9-2-.9-4.1-1.3-6.3-1.3-2.5-.1-4.9.2-7.2 1.2z" class="a"/><path d="M29 19c1.9 0 3.5 1.6 3.5 3.5S31 25.9 29.1 26c-2 .1-3.6-1.5-3.6-3.5 0-1.9 1.7-3.5 3.5-3.5zm2.3 3.5c0-1.3-1-2.3-2.3-2.3-1.3 0-2.3 1-2.3 2.3 0 1.3 1 2.3 2.3 2.3 1.3 0 2.3-1 2.3-2.3zM14.9 19c1.9 0 3.5 1.6 3.5 3.5 0 2-1.5 3.4-3.3 3.5-2 .1-3.7-1.5-3.7-3.5S13 19 14.9 19zm2.2 3.5c0-1.3-1-2.3-2.3-2.3-1.2 0-2.3 1-2.3 2.3 0 1.3 1 2.3 2.3 2.3 1.3 0 2.3-1 2.3-2.3z" class="a"/><path d="M29 21.4c.6 0 1.2.5 1.2 1.2 0 .6-.5 1.2-1.2 1.2-.6 0-1.2-.5-1.2-1.1.1-.8.6-1.3 1.2-1.3zm-14.1 0c.7 0 1.2.5 1.2 1.2 0 .6-.5 1.2-1.2 1.2s-1.2-.5-1.2-1.2.5-1.2 1.2-1.2z" class="a"/></svg>