<svg xmlns="http://www.w3.org/2000/svg" viewBox="0 0 44 44"><path d="M22 44C9.9 44 0 34.1 0 22S9.9 0 22 0s22 9.9 22 22-9.9 22-22 22zm0-42C11 2 2 11 2 22s9 20 20 20 20-9 20-20S33 2 22 2z" class="a"/><path d="M28.1 12H15.8c-2.1 0-3.8 1.7-3.8 3.9v12.3c0 2.1 1.7 3.8 3.9 3.8h12.3c2.1 0 3.8-1.7 3.8-3.9V15.8c0-2.1-1.7-3.8-3.9-3.8zm1.1 2.3h.4v3.4h-3.4v-3.4h3zm-10.1 5.6c.6-.9 1.7-1.5 2.9-1.5s2.2.6 2.9 1.5c.4.6.7 1.3.7 2.1 0 1.9-1.6 3.5-3.5 3.5s-3.5-1.6-3.5-3.5c-.1-.8.1-1.5.5-2.1zm11 8.2c0 1.1-.9 1.9-1.9 1.9H15.9c-1.1 0-1.9-.9-1.9-1.9v-8.2h3c-.3.6-.4 1.3-.4 2.1 0 3 2.5 5.5 5.5 5.5s5.5-2.5 5.5-5.5c0-.7-.1-1.4-.4-2.1h3v8.2h-.1z" class="a"/></svg>