<svg xmlns="http://www.w3.org/2000/svg" viewBox="0 0 107 69.5" style="version:1"><path d="M52.2 8.7L56.5.3l.3-.3h.4L61 2c.3.1.4.5.3.8l-2.8 5.7h9.6c1.3 0 2.7.3 4 .7 5.2 1.7 8.9 6.5 8.9 12.2 0 .5 0 1-.1 1.6 5.3 1.8 8.9 6.6 8.9 12.2 0 5-2.9 9.3-7.2 11.5-1.7.9-3.8 1.4-5.7 1.4H64.5c-.3 0-.6-.3-.6-.6v-1.3c-1.6 1.2-3.5 2-5.6 2.3L48 69c-.1.3-.4.5-.8.5-.3 0-.6-.2-.8-.5L36.1 48.4c-2.1-.3-4-1.2-5.6-2.3v1.3c0 .3-.3.6-.6.6H9.8c-.3 0-.6-.3-.6-.6V32.9C3.8 31.3 0 26.3 0 20.6c0-3 1-5.7 2.8-8 2.5-3.1 6.3-4.8 10.5-4.8 3.3 0 5.9.7 8.4 2.2 2.2-1.4 4.7-2.2 7.3-2.2 3.4 0 6.7 1.3 9.1 3.6 2.4-2.2 5.6-3.6 9.1-3.6 1.8 0 3.5.3 5 .9" clip-path="url(#SVGID_2_)" fill="#541a2a"/><path d="M45 54l1.7-3.4-1.5-3-1.7 3.4 1.5 3zm4.5 0l1.5-3-1.7-3.4-1.5 3 1.7 3.4zm-2.3 4.5l-1.7-3.4 1.7-3.4 1.7 3.4-1.7 3.4zm6.5-4.2l1.3-2.6-1.6-3.3-1.3 2.6 1.6 3.3zm-2.1 4.1L50 55.1l1.5-3 1.6 3.3-1.5 3zm-2.2 4.4l1.7-3.4-1.6-3.3-1.7 3.4 1.6 3.3zm-3.8 1.1l1.6-3.3 1.6 3.3-1.6 3.3-1.6-3.3zm-2.2-4.5l1.7 3.4 1.6-3.3-1.7-3.4-1.6 3.3zm-2.1-4l1.6-3.3 1.5 3-1.6 3.3-1.5-3zm-1.8-3.7l1.3 2.6 1.6-3.3-1.3-2.6-1.6 3.3zm4.9-4.6L43 50l-1-1.9c.8-.3 1.6-.6 2.4-1m-6 1.5c.6 0 1.1 0 1.7-.1L39 50.7l-1-2.1h.4m10.4-2.2l-1.6 3.2-1.6-3.2c.6-.4 1.1-.8 1.6-1.2.6.4 1.1.8 1.6 1.2m3.7 1.7l-1 1.9-1.4-2.9c.7.4 1.5.7 2.4 1m3.6.5h.4l-1 2.1-1.1-2.2c.6 0 1.2.1 1.7.1" clip-path="url(#SVGID_2_)" fill="#d0b9a3"/><path d="M38.4 37.8c-1.4 0-2.6-1.2-2.6-2.6 0-1.4 1.2-2.6 2.6-2.6 1.4 0 2.6 1.2 2.6 2.6-.1 1.5-1.2 2.6-2.6 2.6m0-7.6c-2.8 0-5 2.3-5 5s2.3 5 5 5c2.8 0 5-2.3 5-5s-2.3-5-5-5m17.7 7.6c-1.4 0-2.6-1.2-2.6-2.6 0-1.4 1.2-2.6 2.6-2.6s2.6 1.2 2.6 2.6c0 1.5-1.2 2.6-2.6 2.6m0-7.6c-2.8 0-5 2.3-5 5s2.3 5 5 5c2.8 0 5-2.3 5-5s-2.2-5-5-5m-8.9-6.6c-1.4 0-2.6-1.2-2.6-2.6 0-1.4 1.2-2.6 2.6-2.6 1.4 0 2.6 1.2 2.6 2.6 0 1.5-1.1 2.6-2.6 2.6m0 2.5c1.3-1.3 2.8-2.2 4.5-2.8.3-.7.5-1.5.5-2.2 0-2.8-2.3-5-5-5-2.8 0-5 2.3-5 5 0 .8.2 1.5.5 2.2 1.7.6 3.3 1.6 4.5 2.8M67.8 9.9H57.7l-.9 1.9c.9.9 1.7 2 2.3 3.1v-2.1c0-.3.2-.5.5-.5h8.3c5.1 0 9.2 4 9.2 9 0 .5 0 1-.1 1.4.8 0 1.6.1 2.4.3.1-.6.1-1.2.1-1.7-.1-6.3-5.3-11.4-11.7-11.4m0 13.8h-1.7c-.3 0-.5-.2-.5-.5v-3.8c0-.3.2-.5.5-.5h1.7c1.3 0 2.4 1.1 2.4 2.4 0 1.3-1.1 2.4-2.4 2.4m0-7.2c2.7 0 4.8 2.1 4.8 4.8 0 2.6-2.2 4.8-4.8 4.8h-2.1c-.7-.8-1.6-1.4-2.4-2v-7.5h4.5zm8.8 29.9c6.4 0 11.6-5.1 11.6-11.4 0-6.2-5.2-11.3-11.6-11.4-.2.8-.6 1.6-1.1 2.4h1c5.1 0 9.2 4 9.2 9s-4.1 9-9.2 9h-8.3c-.3 0-.5-.2-.5-.5v-1.9c-.6 1.2-1.4 2.2-2.4 3.1v1.6h11.3zm0-9h-1.7c-.3 0-.5-.2-.5-.5v-3.8c0-.3.2-.5.5-.5h1.7c1.3 0 2.4 1.1 2.4 2.4 0 1.3-1.1 2.4-2.4 2.4m0-7.1c2.7 0 4.8 2.1 4.8 4.8 0 2.6-2.2 4.8-4.8 4.8h-4.5v-9.5h4.5zm-63.5-.9h-1.2c-.4 0-.8-.1-1.2-.2l.1 17.2h18.3v-1.6l-.7-.7H13.7c-.3 0-.5-.2-.5-.5V29.4zm4.3 0h2.4v7.5c0 .3.2.5.5.5h5c.1.8.3 1.6.6 2.4h-8.5V29.4zm8.7.6c-.4 1-.8 2.1-.9 3.2H24V29c.7.4 1.4.7 2.1 1m2.9-6.4c-1.4 0-2.6-1.2-2.6-2.6 0-1.4 1.2-2.6 2.6-2.6s2.6 1.2 2.6 2.6c0 1.5-1.2 2.6-2.6 2.6m5-.9c-.1-.5-.1-1.1-.1-1.6v-.9c-.4-2.3-2.5-4.1-4.9-4.1-2.8 0-5 2.3-5 5s2.1 4.9 4.7 5c1.5-1.6 3.3-2.7 5.3-3.4m-14-4.2c1.1-3.9 4.7-6.8 9-6.8 2.5 0 4.9 1 6.6 2.8.4-.7.9-1.4 1.4-2-2.2-2-5.1-3.2-8.1-3.2-5.6 0-10.3 3.8-11.5 9.2H20zM8.3 20.7c0 2.5 2.1 4.5 4.6 4.5h3.5v-2.4h-3.5c-1.2 0-2.2-1-2.2-2.2 0-1.2 1-2.2 2.2-2.2h3.6c.1-.6.3-1.1.5-1.7-1.2-.6-2.4-.8-3.7-.8-3 .1-5 2-5 4.8m-4.3 0c0 3.8 2.4 7 5.9 8.2v2.6C5 30.1 1.6 25.8 1.6 20.7c0-3.1 1.2-6 3.4-8.1 2.2-2.1 5.2-3.3 8.5-3.3 3 0 5.4.6 7.6 2-.7.5-1.3 1.1-1.8 1.8-1.7-.9-3.5-1.3-5.8-1.3-5.6-.1-9.5 3.7-9.5 8.9m49.8-6.3c-.6-.6-1.2-1-1.9-1.4l5.5-11.2 2.1 1.1-5.7 11.5zM51 12.5l1.1-2.2c-1.5-.7-3.1-1-4.9-1-6.5 0-11.8 5.3-11.8 11.8 0 .6 0 1.2.1 1.8.8-.2 1.6-.3 2.4-.3-.1-.5-.1-1-.1-1.5 0-5.2 4.2-9.3 9.4-9.3 1.4-.1 2.7.2 3.8.7m4.6.3c2.1 2.1 3.4 5.1 3.4 8.3 0 .6 0 1.2-.1 1.8-.8-.2-1.6-.3-2.4-.3.1-.5.1-1 .1-1.5 0-2.3-.8-4.3-2.1-5.9l1.1-2.4zm-7.7 30.9c2.2 2.1 5.2 3.3 8.2 3.3 6.5 0 11.8-5.3 11.8-11.8 0-6.5-5.3-11.8-11.8-11.8-3.1 0-6 1.2-8.2 3.3.5.6 1 1.3 1.5 2 1.8-1.9 4.2-2.9 6.8-2.9 5.2 0 9.4 4.2 9.4 9.3s-4.2 9.3-9.3 9.3c-2.6 0-5-1.1-6.8-2.9-.6.9-1.1 1.6-1.6 2.2m-9.5.9c5.2 0 9.4-4.2 9.4-9.3 0-5.2-4.2-9.3-9.3-9.3-5.2 0-9.3 4.2-9.3 9.3-.2 5.1 4 9.3 9.2 9.3m0-21.1c-6.5 0-11.8 5.3-11.8 11.8 0 6.5 5.3 11.8 11.8 11.8 6.5 0 11.8-5.3 11.8-11.8 0-6.5-5.3-11.8-11.8-11.8" clip-path="url(#SVGID_2_)" clip-rule="evenodd" fill-rule="evenodd" fill="#f4899f"/><path d="M29 19.4c-.9 0-1.6.7-1.6 1.6s.7 1.6 1.6 1.6c.9 0 1.6-.7 1.6-1.6s-.7-1.6-1.6-1.6m18.2 0c-.9 0-1.6.7-1.6 1.6s.7 1.6 1.6 1.6c.9 0 1.6-.7 1.6-1.6s-.7-1.6-1.6-1.6m-8.8 21.8c-3.3 0-6-2.7-6-6s2.7-6 6-6 6 2.7 6 6c-.1 3.3-2.7 6-6 6m0-14.4c-4.6 0-8.4 3.8-8.4 8.4 0 4.6 3.8 8.4 8.4 8.4 4.6 0 8.4-3.8 8.4-8.4 0-4.6-3.8-8.4-8.4-8.4m-10.4.1c-.1.1-.2.3-.3.4-.4.6-.8 1.2-1.1 1.8-3.5-1.1-5.9-4.3-5.9-8 0-4.6 3.8-8.4 8.4-8.4 2.4 0 4.6 1 6.2 2.7-.4.9-.8 1.8-1 2.8-1-1.8-3-3.1-5.2-3.1-3.3 0-6 2.7-6 6 0 2.9 2.1 5.3 4.9 5.8m10.4 6.7c-.9 0-1.6.7-1.6 1.6 0 .9.7 1.6 1.6 1.6.9 0 1.6-.7 1.6-1.6 0-.8-.7-1.6-1.6-1.6m17.7 0c-.9 0-1.6.7-1.6 1.6 0 .9.7 1.6 1.6 1.6.9 0 1.6-.7 1.6-1.6.1-.8-.7-1.6-1.6-1.6m-6.3 7.2c.4-.9.8-1.9 1-2.9 1 1.9 3 3.3 5.3 3.3 3.3 0 6-2.7 6-6s-2.7-6-6-6c-2.3 0-4.3 1.3-5.3 3.2-.2-1-.6-2-1-2.9 1.6-1.8 3.9-2.8 6.3-2.8 4.6 0 8.4 3.8 8.4 8.4 0 4.6-3.8 8.4-8.4 8.4-2.4.2-4.7-.9-6.3-2.7m3.1-17.9c.2-.6.3-1.2.3-1.9 0-3.3-2.7-6-6-6s-6 2.7-6 6c0 .6.1 1.3.3 1.9-.8-.2-1.7-.4-2.6-.4-.1-.5-.1-1-.1-1.5 0-4.6 3.8-8.4 8.4-8.4 4.6 0 8.4 3.8 8.4 8.4 0 .5 0 1-.1 1.5-.9.1-1.7.2-2.6.4m14.9-3.1h-1.2v2.9h1.2c.8 0 1.4-.6 1.4-1.4 0-.8-.6-1.5-1.4-1.5m8.8 13.8h-1.2v2.9h1.2c.8 0 1.4-.6 1.4-1.4 0-.9-.6-1.5-1.4-1.5m-55.9 2.9h4.4c0-.4-.1-.8-.1-1.2v-1.1h-1.6c-.3 0-.5-.2-.5-.5v-5.4c-1-.8-1.8-1.8-2.4-2.9.2 3.7.2 7.4.2 11.1m-6.6-7.1h2.4v10.8c0 .3.2.5.5.5h9.3c.4.8.8 1.6 1.4 2.4H14.1V29.4zm62.5 13.7h-7.8v-3.6c.4-1.3.7-2.7.7-4.2 0-1.7-.3-3.4-1-5 .9-.1 1.8-.3 2.7-.6v10.6c0 .3.2.5.5.5h5c3.2 0 5.8-2.6 5.8-5.7s-2.6-5.7-5.8-5.7h-4.8c1.2-.6 2.2-1.4 3-2.4h1.7c4.5 0 8.2 3.6 8.2 8.1 0 4.4-3.7 8-8.2 8M60.5 22.7c.7.2 1.3.5 1.9.8v-7.4c0-.3.2-.5.5-.5h5c3.2 0 5.8 2.6 5.8 5.7S71.1 27 67.9 27h-1.3c.1.1.2.2.3.4.5.6.9 1.3 1.2 2 4.4-.1 8-3.7 8-8.1 0-4.4-3.7-8.1-8.2-8.1h-7.8v3.9c.4 1.2.6 2.5.6 3.9-.1.6-.2 1.1-.2 1.7m-47.6-3.3c-.7 0-1.2.6-1.2 1.2 0 .7.6 1.2 1.2 1.2h4c.2.1.3.2.3.4v3.3c0 .3-.2.5-.5.5h-4c-1.2 0-2.4-.4-3.4-1.1-1.3-1-2.2-2.6-2.2-4.4 0-3.3 2.5-5.5 6-5.5 1.2 0 2.6.1 4 .8.3-.8.7-1.5 1.2-2.1-1.5-.8-3.1-1.1-5.2-1.1-4.9 0-8.4 3.4-8.4 8 0 4.3 3.6 7.8 8 7.8h6.8v-9.1h-6.6z" clip-path="url(#SVGID_2_)" clip-rule="evenodd" fill-rule="evenodd" fill="#f8e9cd"/></svg>
